<?xml version="1.0" encoding="UTF-8"?>
<svg xmlns="http://www.w3.org/2000/svg" version="1.1" width="500" height="500" viewBox="0 0 500 500"><rect x="0" y="0" width="500" height="500" fill="#ffffff"/><g transform="scale(20)"><g transform="translate(0,0)"><path fill-rule="evenodd" d="M8 0L8 4L9 4L9 5L8 5L8 7L9 7L9 6L10 6L10 9L11 9L11 10L8 10L8 9L7 9L7 8L4 8L4 9L3 9L3 10L4 10L4 11L3 11L3 12L4 12L4 14L5 14L5 13L7 13L7 14L6 14L6 15L7 15L7 16L5 16L5 15L2 15L2 16L0 16L0 17L2 17L2 16L3 16L3 17L4 17L4 16L5 16L5 17L8 17L8 18L9 18L9 19L8 19L8 21L9 21L9 22L10 22L10 23L8 23L8 25L12 25L12 21L9 21L9 19L10 19L10 20L11 20L11 19L12 19L12 20L13 20L13 19L12 19L12 17L13 17L13 18L14 18L14 19L16 19L16 21L17 21L17 22L16 22L16 23L15 23L15 21L14 21L14 23L15 23L15 25L16 25L16 23L17 23L17 25L18 25L18 22L19 22L19 23L20 23L20 22L21 22L21 23L22 23L22 24L19 24L19 25L22 25L22 24L23 24L23 25L25 25L25 24L24 24L24 22L25 22L25 21L24 21L24 20L25 20L25 19L23 19L23 18L24 18L24 17L25 17L25 16L24 16L24 17L23 17L23 14L22 14L22 16L21 16L21 15L19 15L19 12L17 12L17 8L16 8L16 10L15 10L15 12L16 12L16 13L14 13L14 12L13 12L13 11L12 11L12 9L13 9L13 10L14 10L14 9L13 9L13 8L12 8L12 7L13 7L13 6L14 6L14 7L15 7L15 5L16 5L16 7L17 7L17 5L16 5L16 2L17 2L17 1L16 1L16 0L15 0L15 1L16 1L16 2L15 2L15 3L13 3L13 2L12 2L12 3L10 3L10 0ZM13 0L13 1L14 1L14 0ZM10 4L10 5L11 5L11 7L12 7L12 5L13 5L13 4ZM14 4L14 5L15 5L15 4ZM0 8L0 11L1 11L1 12L2 12L2 11L1 11L1 9L2 9L2 8ZM19 8L19 9L20 9L20 14L21 14L21 13L22 13L22 12L23 12L23 13L24 13L24 12L25 12L25 11L23 11L23 9L25 9L25 8L21 8L21 9L20 9L20 8ZM4 9L4 10L7 10L7 11L5 11L5 12L8 12L8 13L9 13L9 14L7 14L7 15L9 15L9 14L10 14L10 13L12 13L12 16L14 16L14 17L15 17L15 18L16 18L16 16L18 16L18 13L16 13L16 14L17 14L17 15L16 15L16 16L14 16L14 13L13 13L13 12L12 12L12 11L10 11L10 12L9 12L9 11L8 11L8 10L7 10L7 9ZM18 10L18 11L19 11L19 10ZM21 10L21 12L22 12L22 10ZM0 13L0 14L2 14L2 13ZM10 15L10 17L9 17L9 18L10 18L10 19L11 19L11 15ZM17 17L17 20L20 20L20 17ZM22 17L22 18L21 18L21 20L22 20L22 23L23 23L23 20L22 20L22 18L23 18L23 17ZM18 18L18 19L19 19L19 18ZM13 24L13 25L14 25L14 24ZM0 0L0 7L7 7L7 0ZM1 1L1 6L6 6L6 1ZM2 2L2 5L5 5L5 2ZM18 0L18 7L25 7L25 0ZM19 1L19 6L24 6L24 1ZM20 2L20 5L23 5L23 2ZM0 18L0 25L7 25L7 18ZM1 19L1 24L6 24L6 19ZM2 20L2 23L5 23L5 20Z" fill="#000000"/></g></g></svg>
